<svg viewBox="0 0 40 40" height="40" width="40" xmlns="http://www.w3.org/2000/svg">
    <g>
        <path d="m27.993 15.347 7.993 4.838v9.493l-7.993 4.652L20 29.678v-9.49" fill="#00B46F"/>
        <path d="m20 1.016 7.993 4.838v9.493L20 19.999l-7.993-4.652v-9.49" fill="#2294D9"/>
        <path d="m27.993 5.854 7.993 4.838v9.494l-7.993 4.652L20 20.187v-9.494" fill="#2294D9"/>
        <path d="M12.007 5.854 20 10.693v9.494l-7.993 4.652-7.993-4.652v-9.494" fill="#F85551"/>
        <path d="M12.007 15.347 20 20.185v9.493l-7.993 4.652-7.993-4.652v-9.49" fill="#F85551"/>
        <path d="m20 20 7.993 4.838v9.493L20 38.983l-7.993-4.652v-9.493" fill="#00B46F"/>
        <path d="M27.993 5.854 20 10.693l-7.993-4.838L20 1.016l7.993 4.838zm7.994 4.839-7.993 4.841L20 10.695l7.993-4.838 7.993 4.838v-.002z" fill="#30B2E9"/>
        <path d="M20 29.491v-9.49l-7.993 4.838v9.49" fill="#00AB64"/>
        <path d="M27.993 24.838 20 29.49l-7.993-4.652L20 20" fill="#00CE8E"/>
        <path d="m20 29.491-7.993-4.652L20 20.001v9.49z" fill="#00C783"/>
        <path d="m20 10.693-7.993-4.838L20 1.016v9.677z" fill="#2CAEE7"/>
        <path d="m20 10.693-7.993 4.841-7.993-4.838 7.993-4.838" fill="#FB716C"/>
        <path d="m35.987 20.187-7.993 4.652L20 20l7.993-4.465" fill="#1F8ED6"/>
        <path d="m11.883 34.251-7.87-4.652 7.87-4.841v9.493z" fill="#F64743"/>
        <path d="M12.007 15.534V5.857L20 10.695v9.304" fill="#F96560"/>
        <path d="M20 20v-9.307l-7.993 4.841v9.304" fill="#B71D1D"/>
        <path d="m20 20-7.993-4.465L20 10.693V20z" fill="#B21A1A"/>
        <path d="m35.987 29.678-7.993-4.838 7.993-4.652v9.49z" fill-opacity=".2" fill="#10161A"/>
        <path d="M27.993 34.331v-9.493L20 29.49v9.494l7.993-4.652v-.001zm7.994-4.652v-9.493l-7.993 4.652v9.493l7.993-4.652z" fill="#007233"/>
        <path d="m35.987 29.678-7.993-4.838 7.993-4.652v9.49z" fill="#00682C"/>
        <path d="M35.987 20.187v-9.494l-7.993 4.841v9.304" fill="#0759BA"/>
        <path d="m35.987 20.187-7.993-4.652 7.993-4.842v9.494z" fill="#0860BF"/>
        <path d="m4.013 10.693 7.993 4.654L20 10.695l-7.811 4.932-.182 9.173c0 .004 0 0 0 0l-.183-9.175-7.811-4.932z" fill="#FEBCB7" opacity=".78"/>
        <path d="m20 10.693 7.993 4.654 7.993-4.652-7.811 4.932-.183 9.21-.183-9.21" fill="#4EDCF8" opacity=".78"/>
        <path d="M12.007 24.838 20 29.306l7.993-4.468-7.811 4.745L20 38.977c0 .004 0 0 0 0l-.183-9.392-7.811-4.745v-.002z" fill="#00F3C9" opacity=".78"/>
    </g>
</svg>
